<?xml version="1.0" encoding="UTF-8" standalone="no"?><!DOCTYPE svg PUBLIC "-//W3C//DTD SVG 1.1//EN" "http://www.w3.org/Graphics/SVG/1.1/DTD/svg11.dtd"><svg width="100%" height="100%" viewBox="0 0 14562 10295" version="1.1" xmlns="http://www.w3.org/2000/svg" xmlns:xlink="http://www.w3.org/1999/xlink" xml:space="preserve" xmlns:serif="http://www.serif.com/" style="fill-rule:evenodd;clip-rule:evenodd;stroke-linecap:round;stroke-linejoin:round;stroke-miterlimit:1.5;"><path d="M10974.888,9979.921l-1474.325,-4348.221l2948.65,0l-1474.325,4348.221Z" style="fill:#ebebeb;stroke:#000;stroke-width:10.42px;"/><path d="M3586.692,776.042l1474.325,4348.221l-2948.65,0l1474.325,-4348.221Z" style="fill:#ebebeb;stroke:#000;stroke-width:10.42px;"/><g transform="matrix(1.42892,0,0,1.42892,1977.727156,2284.815831)"><text x="749.961px" y="725.515px" style="font-family:'ArialMT', 'Arial', sans-serif;font-size:30px;">θ</text><g transform="matrix(17.49,0,0,17.49,776.373079,735.505331)"></g><text x="766.646px" y="735.505px" style="font-family:'ArialMT', 'Arial', sans-serif;font-size:17.49px;">2</text></g><path d="M3586.692,776.042l2637.033,7777.388" style="fill:none;stroke:#0f00eb;stroke-width:10.42px;"/><path d="M5401.9,5604.179l-122.887,124.162l173.063,23.812c-49.537,-24.45 -74.625,-98.438 -50.175,-147.975Z"/><path d="M8916.675,4412.45l173.062,23.812l-122.887,124.163c24.45,-49.537 -0.637,-123.525 -50.175,-147.975Z"/><path d="M5397.392,5688.204c567.608,-192.454 3006.354,-1019.346 3573.963,-1211.8" style="fill:none;stroke:#000;stroke-width:10.42px;stroke-dasharray:52.083,52.083,0,0,0,0;"/><path d="M3862.346,3349.175l2681.554,-909.221" style="fill:none;stroke:#000;stroke-width:10.42px;stroke-dasharray:156.25,52.083,52.083,52.083,0,0;"/><path d="M2720.679,3386.675l2681.554,-909.221" style="fill:none;stroke:#000;stroke-width:10.42px;stroke-dasharray:156.25,52.083,52.083,52.083,0,0;"/><path d="M7733.179,8403.342l3098.221,-1050.496" style="fill:none;stroke:#000;stroke-width:10.42px;stroke-dasharray:156.25,52.083,52.083,52.083,0,0;"/><path d="M7595.025,5.208l2637.033,7777.388" style="fill:none;stroke:#0f00eb;stroke-width:10.42px;"/><path d="M3586.692,767.708l7391.042,9228.408" style="fill:none;stroke:#0f00eb;stroke-width:10.42px;"/><path d="M3939.7,3814.233l-3721.883,-1259.788" style="fill:none;stroke:#000;stroke-width:10.42px;stroke-dasharray:156.25,52.083,0,0,0,0;"/><path d="M3324.05,1582.312c85.067,29.85 174.567,45.1 264.717,45.1c90.15,0 179.65,-15.246 264.717,-45.1c-85.067,29.85 -174.567,45.1 -264.717,45.1c-90.15,0 -179.65,-15.246 -264.717,-45.1Z" style="fill:#ebebeb;stroke:#000;stroke-width:10.42px;"/><path d="M5.208,5132.513l2695.317,-1731.812l1686.129,-240.875" style="fill:none;stroke:#ff1212;stroke-width:10.42px;"/><g><text x="1922.21px" y="3557.823px" style="font-family:'ArialMT', 'Arial', sans-serif;font-size:207.651px;">θ</text><text x="2037.698px" y="3626.971px" style="font-family:'ArialMT', 'Arial', sans-serif;font-size:121.061px;">0</text></g><g><text x="3263.624px" y="3498.47px" style="font-family:'ArialMT', 'Arial', sans-serif;font-size:207.651px;">θ</text><text x="3379.112px" y="3567.617px" style="font-family:'ArialMT', 'Arial', sans-serif;font-size:121.061px;">1</text></g><g><text x="5899.228px" y="3349.472px" style="font-family:'ArialMT', 'Arial', sans-serif;font-size:207.651px;">θ</text><text x="6014.715px" y="3418.62px" style="font-family:'ArialMT', 'Arial', sans-serif;font-size:121.061px;">3</text></g><g><text x="3474.163px" y="612.781px" style="font-family:'ArialMT', 'Arial', sans-serif;font-size:207.651px;">O</text><text x="3635.682px" y="681.929px" style="font-family:'ArialMT', 'Arial', sans-serif;font-size:121.061px;">1</text></g><text x="2526.746px" y="3261.833px" style="font-family:'ArialMT', 'Arial', sans-serif;font-size:207.65px;">A</text><path d="M11492.713,7236.492l2851.05,965.029" style="fill:none;stroke:#000;stroke-width:10.42px;stroke-dasharray:156.25,52.083,52.083,52.083,0,0;"/><path d="M11237.529,9173.646c-85.067,-29.85 -174.567,-45.1 -264.717,-45.1c-90.15,0 -179.65,15.246 -264.717,45.1c85.067,-29.85 174.567,-45.1 264.717,-45.1c90.15,0 179.65,15.246 264.717,45.1Z" style="fill:#ebebeb;stroke:#000;stroke-width:10.42px;"/><path d="M14556.371,5623.45l-2695.317,1740.146l-1690.296,220.042" style="fill:none;stroke:#ff1212;stroke-width:10.42px;"/><g><text x="12274.217px" y="7328.35px" style="font-family:'ArialMT', 'Arial', sans-serif;font-size:207.651px;">θ</text><text x="12389.705px" y="7397.498px" style="font-family:'ArialMT', 'Arial', sans-serif;font-size:121.061px;">7</text><text x="12457.034px" y="7328.35px" style="font-family:'HiraginoSans-W4', 'Hiragino Sans', sans-serif;font-size:207.651px;">＝</text><text x="12664.685px" y="7328.35px" style="font-family:'ArialMT', 'Arial', sans-serif;font-size:207.651px;">θ</text><text x="12780.173px" y="7397.498px" style="font-family:'ArialMT', 'Arial', sans-serif;font-size:121.061px;">0</text></g><g><text x="10945.925px" y="7319.649px" style="font-family:'ArialMT', 'Arial', sans-serif;font-size:207.651px;">θ</text><text x="11061.413px" y="7388.797px" style="font-family:'ArialMT', 'Arial', sans-serif;font-size:121.061px;">6 =</text><text x="11233.074px" y="7319.649px" style="font-family:'ArialMT', 'Arial', sans-serif;font-size:207.651px;">θ</text><text x="11348.562px" y="7388.797px" style="font-family:'ArialMT', 'Arial', sans-serif;font-size:121.061px;">1</text></g><g><text x="10300.269px" y="7316.338px" style="font-family:'ArialMT', 'Arial', sans-serif;font-size:207.651px;">θ</text><text x="10415.756px" y="7385.486px" style="font-family:'ArialMT', 'Arial', sans-serif;font-size:121.061px;">5</text><text x="10516.721px" y="7316.338px" style="font-family:'ArialMT', 'Arial', sans-serif;font-size:207.651px;">=θ</text><text x="10753.472px" y="7385.486px" style="font-family:'ArialMT', 'Arial', sans-serif;font-size:121.061px;">2</text></g><g><text x="3760.925px" y="3521.863px" style="font-family:'ArialMT', 'Arial', sans-serif;font-size:207.651px;">θ</text><text x="3876.413px" y="3591.011px" style="font-family:'ArialMT', 'Arial', sans-serif;font-size:121.061px;">2</text><text x="3943.742px" y="3521.863px" style="font-family:'ArialMT', 'Arial', sans-serif;font-size:207.651px;">=α-θ</text><text x="4369.689px" y="3591.011px" style="font-family:'ArialMT', 'Arial', sans-serif;font-size:121.061px;">1</text></g><path d="M4001.713,3214.296c2.271,28.072 6.45,55.852 12.487,83.037c-6.037,-27.186 -10.217,-54.966 -12.487,-83.037Z" style="fill:#ebebeb;fill-opacity:0;stroke:#000;stroke-width:11.8px;"/><g><text x="10870.752px" y="10225.306px" style="font-family:'ArialMT', 'Arial', sans-serif;font-size:207.651px;">O</text><text x="11032.271px" y="10294.454px" style="font-family:'ArialMT', 'Arial', sans-serif;font-size:121.061px;">2</text></g><text x="10013.738px" y="7835.958px" style="font-family:'ArialMT', 'Arial', sans-serif;font-size:207.65px;">C</text><path d="M4394.562,3171.233l5759.421,4401.133" style="fill:none;stroke:#ff0202;stroke-width:10.42px;"/><text x="2761.946px" y="7430.596px" style="font-family:'ArialMT', 'Arial', sans-serif;font-size:206.942px;">L</text><path d="M3748.679,1314.804l-156.25,78.125l156.25,78.125c-39.062,-39.062 -39.062,-117.188 0,-156.25Z"/><path d="M10809.913,1314.804l156.25,78.125l-156.25,78.125c39.062,-39.062 39.062,-117.188 0,-156.25Z"/><path d="M3717.429,1392.929l7123.729,0" style="fill:none;stroke:#000;stroke-width:10.42px;stroke-dasharray:52.083,52.083,0,0,0,0;"/><path d="M3939.7,3814.233l-3721.883,-1259.788" style="fill:none;stroke:#000;stroke-width:10.42px;stroke-dasharray:156.25,52.083,52.083,52.083,0,0;"/><path d="M2844.75,2970.167l-2401.95,7061.675" style="fill:none;stroke:#000;stroke-width:10.42px;stroke-dasharray:156.25,52.083,0,0,0,0;"/><path d="M2844.75,2970.167l-2401.95,7061.675" style="fill:none;stroke:#000;stroke-width:10.42px;stroke-dasharray:156.25,52.083,0,0,0,0;"/><path d="M10952.2,9974.025l-9401.05,-3182.079" style="fill:none;stroke:#000;stroke-width:10.42px;stroke-dasharray:156.25,52.083,0,0,0,0;"/><path d="M10952.2,9974.025l-9401.05,-3182.079" style="fill:none;stroke:#000;stroke-width:10.42px;stroke-dasharray:156.25,52.083,0,0,0,0;"/><path d="M2209.617,5823.817l288.417,-39.842l-204.921,-206.829l-83.492,246.671l-0.004,-0Z"/><path d="M2300.696,5717.183c-155.2,-52.533 -345.383,-116.904 -345.383,-116.904" style="fill:none;stroke:#000;stroke-width:86.79px;stroke-linecap:butt;"/><path d="M4576.104,2719.796l205.525,-206.229l-288.3,-40.683l82.771,246.913l0.004,0Z"/><path d="M4584.104,2579.788c-155.354,52.079 -345.721,115.896 -345.721,115.896" style="fill:none;stroke:#000;stroke-width:86.79px;stroke-linecap:butt;"/><path d="M12246.2,926.438l-78.125,-156.25l-78.125,156.25c39.062,-39.062 117.188,-39.062 156.25,0Z"/><path d="M12246.2,9835.5l-78.125,156.25l-78.125,-156.25c39.062,39.062 117.188,39.062 156.25,0Z"/><path d="M12168.075,895.188l0,8971.562" style="fill:none;stroke:#000;stroke-width:10.42px;stroke-dasharray:52.083,52.083,0,0,0,0;"/><path d="M3602.363,760.517l8953.104,0" style="fill:none;stroke:#000;stroke-width:10.42px;"/><path d="M4156.529,9998.017l8953.104,0" style="fill:none;stroke:#000;stroke-width:10.42px;"/><g><g transform="matrix(0.965926,-0.258819,0.258819,0.965926,-1274.166272,1733.905911)"><text x="5948.081px" y="5706.081px" style="font-family:'TimesNewRomanPSMT', 'Times New Roman', serif;font-size:206.942px;">s</text></g></g><text x="12341.337px" y="1787.029px" style="font-family:'TimesNewRomanPSMT', 'Times New Roman', serif;font-size:206.942px;">h</text><text x="7234.704px" y="1174.075px" style="font-family:'TimesNewRomanPSMT', 'Times New Roman', serif;font-size:206.942px;">w</text><path d="M5521.383,4010.525c183.6,-245.158 282.833,-543.2 282.833,-849.488c0,-151.275 -24.221,-301.575 -71.742,-445.188c47.521,143.617 71.742,293.917 71.742,445.188c0,306.287 -99.233,604.329 -282.833,849.487Z" style="fill:#ebebeb;fill-opacity:0;stroke:#000;stroke-width:10.42px;stroke-dasharray:52.083,20.833,20.833,20.833,0,0;"/><path d="M10592.529,7529.542c-2.188,-28.896 -7.367,-57.492 -15.458,-85.317c8.092,27.829 13.271,56.421 15.458,85.317Z" style="fill:#ebebeb;fill-opacity:0;stroke:#000;stroke-width:10.42px;"/><g><text x="10300.269px" y="7316.338px" style="font-family:'ArialMT', 'Arial', sans-serif;font-size:207.651px;">θ</text><text x="10415.756px" y="7385.486px" style="font-family:'ArialMT', 'Arial', sans-serif;font-size:121.061px;">5</text><text x="10516.721px" y="7316.338px" style="font-family:'ArialMT', 'Arial', sans-serif;font-size:207.651px;">=θ</text><text x="10753.472px" y="7385.486px" style="font-family:'ArialMT', 'Arial', sans-serif;font-size:121.061px;">2</text></g><path d="M3778.142,3164.083l9244.479,0" style="fill:none;stroke:#10eb00;stroke-width:10.42px;"/><path d="M6920.9,7582.9l5502.983,0" style="fill:none;stroke:#10eb00;stroke-width:10.42px;"/><path d="M5045.842,3652.367c105.417,-140.867 162.387,-312.079 162.387,-488.021c0,175.942 -56.971,347.158 -162.387,488.021Z" style="fill:#ebebeb;fill-opacity:0;stroke:#10eb00;stroke-width:10.42px;"/><g><text x="5188.959px" y="3510.576px" style="font-family:'TimesNewRomanPSMT', 'Times New Roman', serif;font-size:206.941px;fill:#29ff00;">θ</text><text x="5288.086px" y="3579.486px" style="font-family:'TimesNewRomanPSMT', 'Times New Roman', serif;font-size:120.648px;fill:#29ff00;">3</text><text x="5348.407px" y="3510.576px" style="font-family:'TimesNewRomanPSMT', 'Times New Roman', serif;font-size:206.941px;fill:#29ff00;">-α/2</text></g><path d="M3585.808,763.829l0,2814.4" style="fill:none;stroke:#10eb00;stroke-width:10.42px;"/><path d="M4403.642,763.829l0,963.517" style="fill:none;stroke:#10eb00;stroke-width:10.42px;"/><path d="M10168.196,859.85l0,6663.517" style="fill:none;stroke:#10eb00;stroke-width:10.42px;"/><path d="M10979.404,1287.604l0,8747.192" style="fill:none;stroke:#10eb00;stroke-width:10.42px;"/><g><text x="2225.738px" y="6023.583px" style="font-family:'TimesNewRomanPS-BoldMT', 'Times New Roman', serif;font-weight:700;font-size:260.417px;">u</text><text x="2370.567px" y="6110.304px" style="font-family:'TimesNewRomanPSMT', 'Times New Roman', serif;font-size:151.825px;">1</text></g><g><text x="4421.571px" y="2886.083px" style="font-family:'TimesNewRomanPS-BoldMT', 'Times New Roman', serif;font-weight:700;font-size:260.417px;">u</text><text x="4566.401px" y="2972.804px" style="font-family:'TimesNewRomanPSMT', 'Times New Roman', serif;font-size:151.825px;">2</text></g><text x="4512.062px" y="3423.183px" style="font-family:'ArialMT', 'Arial', sans-serif;font-size:207.65px;">B</text><text x="11896.329px" y="7642.767px" style="font-family:'ArialMT', 'Arial', sans-serif;font-size:207.65px;">D</text><text x="10901.421px" y="8984.183px" style="font-family:'ArialMT', 'Arial', sans-serif;font-size:207.65px;">α</text><text x="3540.613px" y="1879.458px" style="font-family:'ArialMT', 'Arial', sans-serif;font-size:207.65px;">α</text><path d="M2943.565,3366.684c-2.274,-16.622 -6.243,-32.968 -11.846,-48.781c5.603,15.814 9.572,32.159 11.846,48.781Z" style="fill:#ebebeb;fill-opacity:0;stroke:#000;stroke-width:2.71px;"/></svg>