<?xml version="1.0" encoding="UTF-8" standalone="no"?><!DOCTYPE svg PUBLIC "-//W3C//DTD SVG 1.1//EN" "http://www.w3.org/Graphics/SVG/1.1/DTD/svg11.dtd"><svg width="100%" height="100%" viewBox="0 0 2529 1870" version="1.1" xmlns="http://www.w3.org/2000/svg" xmlns:xlink="http://www.w3.org/1999/xlink" xml:space="preserve" xmlns:serif="http://www.serif.com/" style="fill-rule:evenodd;clip-rule:evenodd;stroke-linecap:round;stroke-linejoin:round;stroke-miterlimit:1.5;"><path d="M1905.464,1735.423l-255.973,-754.94l511.946,0l-255.973,754.94Z" style="fill:#ebebeb;stroke:#000;stroke-width:1.81px;"/><path d="M622.723,137.442l255.973,754.94l-511.946,0l255.973,-754.94Z" style="fill:#ebebeb;stroke:#000;stroke-width:1.81px;"/><text x="529.432px" y="579.389px" style="font-family:'ArialMT', 'Arial', sans-serif;font-size:7.443px;">θ</text><text x="533.571px" y="581.867px" style="font-family:'ArialMT', 'Arial', sans-serif;font-size:4.339px;">2</text><path d="M1609.514,1420.965l-33.87,-33.523l-6.496,47.209l40.366,-13.687Z" style="fill:#0f00eb;"/><path d="M1729.659,1742.124l-16.588,50.631l-43.961,-30.101l60.549,-20.53Z" style="fill:#0f00eb;"/><path d="M1586.593,1419.735c25.729,75.881 89.8,264.846 115.528,340.727" style="fill:none;stroke:#0f00eb;stroke-width:2.84px;"/><path d="M478.516,140.366l-7.775,-53.382l-38.04,38.25l45.816,15.132Z" style="fill:#0f00eb;"/><path d="M373.511,496.746l-49.494,34.467l-19.229,-57.165l68.724,22.699Z" style="fill:#0f00eb;"/><path d="M458.635,123.637c-27.598,83.557 -94.914,287.366 -122.512,370.923" style="fill:none;stroke:#0f00eb;stroke-width:3.22px;"/><path d="M472.366,590.701l678.572,-230.08" style="fill:none;stroke:#000;stroke-width:2.64px;stroke-dasharray:39.539,13.18,13.18,13.18,0,0;"/><path d="M1495.638,1409.82l384.914,-130.511" style="fill:none;stroke:#000;stroke-width:1.88px;stroke-dasharray:28.114,9.371,9.371,9.371,0,0;"/><path d="M1662.638,1815.82l384.914,-130.511" style="fill:none;stroke:#000;stroke-width:1.88px;stroke-dasharray:28.114,9.371,9.371,9.371,0,0;"/><path d="M622.723,135.995l1283.235,1602.239" style="fill:none;stroke:#0f00eb;stroke-width:1.81px;"/><path d="M684.013,664.934l-464.195,-157.121" style="fill:none;stroke:#000;stroke-width:1.3px;stroke-dasharray:19.488,6.496,0,0,0,0;"/><path d="M684.013,664.934l-464.195,-157.121" style="fill:none;stroke:#000;stroke-width:1.3px;stroke-dasharray:19.488,6.496,0,0,0,0;"/><path d="M874.013,218.934l-464.195,-157.121" style="fill:none;stroke:#000;stroke-width:1.3px;stroke-dasharray:19.488,6.496,0,0,0,0;"/><path d="M577.123,277.427c14.769,5.183 30.308,7.83 45.96,7.83c15.652,0 31.191,-2.647 45.96,-7.83c-14.769,5.183 -30.308,7.83 -45.96,7.83c-15.652,0 -31.191,-2.647 -45.96,-7.83Z" style="fill:#ebebeb;stroke:#000;stroke-width:1.81px;"/><path d="M0.905,893.814l467.962,-300.678l292.746,-41.821" style="fill:none;stroke:#ff1212;stroke-width:1.81px;"/><text x="333.735px" y="620.416px" style="font-family:'ArialMT', 'Arial', sans-serif;font-size:36.052px;">θ</text><text x="353.786px" y="632.422px" style="font-family:'ArialMT', 'Arial', sans-serif;font-size:21.019px;">0</text><text x="566.632px" y="610.111px" style="font-family:'ArialMT', 'Arial', sans-serif;font-size:36.052px;">θ</text><text x="586.683px" y="622.116px" style="font-family:'ArialMT', 'Arial', sans-serif;font-size:21.019px;">1</text><text x="1024.226px" y="584.242px" style="font-family:'ArialMT', 'Arial', sans-serif;font-size:36.052px;">θ</text><text x="1044.277px" y="596.248px" style="font-family:'ArialMT', 'Arial', sans-serif;font-size:21.019px;">3</text><text x="603.186px" y="109.097px" style="font-family:'ArialMT', 'Arial', sans-serif;font-size:36.052px;">O</text><text x="631.229px" y="121.102px" style="font-family:'ArialMT', 'Arial', sans-serif;font-size:21.019px;">1</text><text x="438.695px" y="569.026px" style="font-family:'ArialMT', 'Arial', sans-serif;font-size:36.052px;">A</text><path d="M1995.369,1259.108l495,167.549" style="fill:none;stroke:#000;stroke-width:1.81px;stroke-dasharray:27.128,9.043,9.043,9.043,0,0;"/><path d="M1951.064,1595.437c-14.769,-5.183 -30.308,-7.83 -45.96,-7.83c-15.652,0 -31.191,2.647 -45.96,7.83c14.769,-5.183 30.308,-7.83 45.96,-7.83c15.652,0 31.191,2.647 45.96,7.83Z" style="fill:#ebebeb;stroke:#000;stroke-width:1.81px;"/><path d="M2527.283,979.051l-467.962,302.125l-293.47,38.204" style="fill:none;stroke:#ff1212;stroke-width:1.81px;"/><text x="2131.054px" y="1275.056px" style="font-family:'ArialMT', 'Arial', sans-serif;font-size:36.052px;">θ</text><text x="2151.105px" y="1287.062px" style="font-family:'ArialMT', 'Arial', sans-serif;font-size:21.019px;">7</text><text x="2162.795px" y="1275.056px" style="font-family:'HiraginoSans-W4', 'Hiragino Sans', sans-serif;font-size:36.052px;">＝</text><text x="2198.847px" y="1275.056px" style="font-family:'ArialMT', 'Arial', sans-serif;font-size:36.052px;">θ</text><text x="2218.898px" y="1287.062px" style="font-family:'ArialMT', 'Arial', sans-serif;font-size:21.019px;">0</text><text x="1900.436px" y="1273.546px" style="font-family:'ArialMT', 'Arial', sans-serif;font-size:36.052px;">θ</text><text x="1920.487px" y="1285.551px" style="font-family:'ArialMT', 'Arial', sans-serif;font-size:21.019px;">6 =</text><text x="1950.291px" y="1273.546px" style="font-family:'ArialMT', 'Arial', sans-serif;font-size:36.052px;">θ</text><text x="1970.342px" y="1285.551px" style="font-family:'ArialMT', 'Arial', sans-serif;font-size:21.019px;">1</text><text x="1788.337px" y="1272.971px" style="font-family:'ArialMT', 'Arial', sans-serif;font-size:36.052px;">θ</text><text x="1808.388px" y="1284.976px" style="font-family:'ArialMT', 'Arial', sans-serif;font-size:21.019px;">5</text><text x="1825.917px" y="1272.971px" style="font-family:'ArialMT', 'Arial', sans-serif;font-size:36.052px;">=θ</text><text x="1867.022px" y="1284.976px" style="font-family:'ArialMT', 'Arial', sans-serif;font-size:21.019px;">2</text><text x="652.974px" y="614.173px" style="font-family:'ArialMT', 'Arial', sans-serif;font-size:36.052px;">θ</text><text x="673.025px" y="626.178px" style="font-family:'ArialMT', 'Arial', sans-serif;font-size:21.019px;">2</text><text x="684.714px" y="614.173px" style="font-family:'ArialMT', 'Arial', sans-serif;font-size:36.052px;">=α-θ</text><text x="758.667px" y="626.178px" style="font-family:'ArialMT', 'Arial', sans-serif;font-size:21.019px;">1</text><path d="M694.779,560.773c0.394,4.874 1.12,9.697 2.168,14.417c-1.048,-4.72 -1.774,-9.543 -2.168,-14.417Z" style="fill:#ebebeb;fill-opacity:0;stroke:#000;stroke-width:2.05px;"/><text x="1887.384px" y="1778.027px" style="font-family:'ArialMT', 'Arial', sans-serif;font-size:36.052px;">O</text><text x="1915.427px" y="1790.032px" style="font-family:'ArialMT', 'Arial', sans-serif;font-size:21.019px;">2</text><text x="1738.589px" y="1363.187px" style="font-family:'ArialMT', 'Arial', sans-serif;font-size:36.052px;">C</text><path d="M762.986,553.296l999.953,764.126" style="fill:none;stroke:#ff0202;stroke-width:1.81px;"/><path d="M948.789,362.992l-29.803,-5.696l13.325,27.26l16.478,-21.564Z" style="fill:#ff0202;"/><path d="M1905.614,1094.162l13.325,27.26l-29.803,-5.696l16.478,-21.564Z" style="fill:#ff0202;"/><path d="M936.237,370.479c121.254,92.657 844.197,645.104 965.451,737.761" style="fill:none;stroke:#ff0202;stroke-width:1.81px;"/><path d="M790.531,514.336l160.438,-209.953" style="fill:none;stroke:#ff0202;stroke-width:3.33px;stroke-dasharray:16.667,16.667,0,0,0,0;"/><path d="M1799.531,1285.336l160.438,-209.953" style="fill:none;stroke:#ff0202;stroke-width:3.33px;stroke-dasharray:16.667,16.667,0,0,0,0;"/><path d="M899.625,660.014c31.877,-42.564 49.106,-94.311 49.106,-147.488c0,-26.264 -4.205,-52.36 -12.456,-77.294c8.251,24.935 12.456,51.03 12.456,77.294c0,53.178 -17.229,104.924 -49.106,147.488l0,0Z" style="fill:#ebebeb;fill-opacity:0;stroke:#000;stroke-width:1.81px;stroke-dasharray:9.043,3.617,3.617,3.617,0,0;"/><path d="M1839.079,1309.987c-0.38,-5.017 -1.279,-9.982 -2.684,-14.813c1.405,4.832 2.304,9.796 2.684,14.813Z" style="fill:#ebebeb;fill-opacity:0;stroke:#000;stroke-width:1.81px;"/><text x="1788.337px" y="1272.971px" style="font-family:'ArialMT', 'Arial', sans-serif;font-size:36.052px;">θ</text><text x="1808.388px" y="1284.976px" style="font-family:'ArialMT', 'Arial', sans-serif;font-size:21.019px;">5</text><text x="1825.917px" y="1272.971px" style="font-family:'ArialMT', 'Arial', sans-serif;font-size:36.052px;">=θ</text><text x="783.386px" y="597.04px" style="font-family:'ArialMT', 'Arial', sans-serif;font-size:36.052px;">B</text><text x="2065.445px" y="1329.645px" style="font-family:'ArialMT', 'Arial', sans-serif;font-size:36.052px;">D</text><text x="1892.709px" y="1562.542px" style="font-family:'ArialMT', 'Arial', sans-serif;font-size:36.052px;">α</text><text x="614.723px" y="329.018px" style="font-family:'ArialMT', 'Arial', sans-serif;font-size:36.052px;">α</text><path d="M511.063,587.23c-0.395,-2.886 -1.084,-5.724 -2.057,-8.469c0.973,2.746 1.662,5.583 2.057,8.469Z" style="fill:#ebebeb;fill-opacity:0;stroke:#000;stroke-width:0.47px;"/><g transform="matrix(0.866025,0.5,-0.5,0.866025,-212.439668,-320.428308)"><g transform="matrix(100,0,0,100,1934.815789,49.032462)"></g><text x="1879.201px" y="49.032px" style="font-family:'ArialMT', 'Arial', sans-serif;font-size:100px;">L</text></g><g transform="matrix(0.258819,-0.965926,0.965926,0.258819,-1252.794938,-829.650492)"><g transform="matrix(75,0,0,75,-441.51911,1817.138892)"></g><text x="-891.629px" y="1817.139px" style="font-family:'ArialMT', 'Arial', sans-serif;font-size:75px;">prism insert 1</text></g><g transform="matrix(0.297599,0.954691,-0.954691,0.297599,2562.107409,-2090.334549)"><g transform="matrix(75,0,0,75,3427.115688,2111.645283)"></g><text x="2977.006px" y="2111.645px" style="font-family:'ArialMT', 'Arial', sans-serif;font-size:75px;">prism insert 2</text></g></svg>